# xmcd
#
# Track frame offsets:
#	150
#	7696
#	22113
#	33466
#	45992
#	64759
#	77570
#	88473
#	100416
#	118523
#	130384
#
# Disc length: 1949 seconds
#
# Revision: 1
# Processed by: cddbd v1.5.1PL0 Copyright (c) Steve Scherf et al.
# Submitted via: audiograbber 1.83.01
#
DISCID=87079b0b
DTITLE=sirius - Country Gals 3018
DYEAR=1900
DGENRE=Country
TTITLE0=Computer Program
TTITLE1=Could I have this Dance
TTITLE2=Don't it make my brown eyes blue
TTITLE3=Girls night out
TTITLE4=Grandpa (tell me bout the good old days)
TTITLE5=I just fall in love again
TTITLE6=9 to 5
TTITLE7=Rockin with the rhythen of the rain
TTITLE8=She's in love with the boy
TTITLE9=That's what I like about you
TTITLE10=You needed me
EXTD=
EXTT0=
EXTT1=
EXTT2=
EXTT3=
EXTT4=
EXTT5=
EXTT6=
EXTT7=
EXTT8=
EXTT9=
EXTT10=
PLAYORDER=
